<svg xmlns="http://www.w3.org/2000/svg" width="742.41705" height="712.57402" viewBox="0 0 742.41705 712.57402" xmlns:xlink="http://www.w3.org/1999/xlink"><path d="M576.27777,489.01269c.53526,6.64637-2.4595,12.3104-6.68901,12.65102-4.22951,.34062-8.09209-4.77116-8.62735-11.41753-.2343-2.90934,.20793-5.63037,1.13389-7.79916l-1.91474-28.19102,13.24843-.6168,.48139,27.8563c1.2611,1.99266,2.13308,4.60785,2.36738,7.51719Z" fill="#ffb6b6"/><g><polygon points="606.19517 704.75201 596.16459 704.75102 591.39299 666.06121 606.19721 666.06223 606.19517 704.75201" fill="#ffb6b6"/><path d="M571.82917,704.52446h0c-.3123,.52598-.47711,2.22367-.47711,2.83537h0c0,1.8802,1.5242,3.4044,3.40439,3.4044h31.06353c1.28268,0,2.32249-1.03981,2.32249-2.32249v-1.29328s1.5367-3.88695-1.62709-8.67784c0,0-3.93214,3.75136-9.80776-2.12426l-1.73267-3.13883-12.54213,9.17264-6.95192,.85571c-1.52091,.18721-2.86938-.02906-3.65173,1.28858Z" fill="#2f2e41"/></g><g><polygon points="644.19517 704.75201 634.16459 704.75102 629.39299 666.06121 644.19721 666.06223 644.19517 704.75201" fill="#ffb6b6"/><path d="M609.82917,704.52446h0c-.3123,.52598-.47711,2.22367-.47711,2.83537h0c0,1.8802,1.5242,3.4044,3.40439,3.4044h31.06353c1.28268,0,2.32249-1.03981,2.32249-2.32249v-1.29328s1.5367-3.88695-1.62709-8.67784c0,0-3.93214,3.75136-9.80776-2.12426l-1.73267-3.13883-12.54213,9.17264-6.95192,.85571c-1.52091,.18721-2.86938-.02906-3.65173,1.28858Z" fill="#2f2e41"/></g><path id="b-39" d="M429.91394,168.89198h0V61.91498C429.91394,27.72028,402.19366,0,367.99896,0H141.349c-34.1947-.00056-61.91547,27.71928-61.91602,61.91399V648.79799c0,34.1947,27.72028,61.91498,61.91498,61.91498h226.64801c34.1947,0,61.91498-27.72028,61.91498-61.91498V245.03999h.00031c2.15378,0,3.89978-1.74594,3.89987-3.89971l.00268-68.34828c.00008-2.1539-1.74597-3.90002-3.89987-3.90002Z" fill="#3f3d56"/><path id="c-40" d="M418.28699,56.767V651.94197c-.00385,25.92542-21.0166,46.94263-46.94202,46.95203H140.04498c-25.93588,.00391-46.9653-21.01611-46.97302-46.95203V56.767c.00772-25.93494,21.03607-46.95432,46.97101-46.951h17.05798c-4.64526,11.42361,28.78192,30.73637,31.65601,30.74001h131.86798c12.33197-.01561,32.73865-28.07764,31.65601-30.74h19.05499c25.92499,.00443,46.94159,21.01704,46.95099,46.94201l.00006,.00899Z" fill="#fff"/><path id="d-41" d="M359.88097,472.57598H154.34399c-2.1011-.0022-3.8038-1.70496-3.806-3.80603v-50.98395c.00275-2.10089,1.70514-3.80328,3.806-3.80603h205.53699c2.10089,.00275,3.80328,1.70514,3.80603,3.80603v50.98499c-.0033,2.10046-1.70557,3.80225-3.80603,3.80499Zm-205.53699-57.07397c-1.26096,.0011-2.2829,1.02301-2.284,2.284v50.98499c.0011,1.26099,1.02304,2.2829,2.284,2.284h205.53699c1.26099-.0011,2.2829-1.02301,2.284-2.284v-50.98499c-.0011-1.26099-1.02301-2.2829-2.284-2.284H154.34399Z" fill="#e6e6e6"/><path id="e-42" d="M359.88097,570.83499H154.34399c-2.1011-.0022-3.8038-1.70496-3.806-3.80603v-50.98395c.00275-2.10089,1.70514-3.80328,3.806-3.80603h205.53699c2.10089,.00275,3.80328,1.70514,3.80603,3.80603v50.98499c-.00275,2.10089-1.70514,3.80328-3.80603,3.80603v-.00104Zm-205.53699-57.07397c-1.26096,.0011-2.2829,1.02301-2.284,2.284v50.98499c.0011,1.26099,1.02304,2.2829,2.284,2.284h205.53699c1.26099-.0011,2.2829-1.02301,2.284-2.284v-50.98499c-.0011-1.26099-1.02301-2.2829-2.284-2.284H154.34399Z" fill="#e6e6e6"/><circle id="f" cx="180.98698" cy="541.537" r="15.986" fill="#e6e6e6"/><path id="g-43" d="M217.90797,530.87899c-1.47156,0-2.66449,1.19293-2.66449,2.66449s1.19293,2.66449,2.66449,2.66449h125.60498c1.47076,.05634,2.70874-1.09027,2.76508-2.56097,.0564-1.47076-1.09021-2.70874-2.56097-2.76514-.039-.00146-.07806-.00214-.11713-.00189h-125.69196v-.00098Z" fill="#e6e6e6"/><path id="h-44" d="M217.90797,546.86497c-1.47156,0-2.66449,1.19293-2.66449,2.66449s1.19293,2.66449,2.66449,2.66449h125.60498c1.47076,.05634,2.70874-1.09021,2.76508-2.56097,.0564-1.47076-1.09021-2.70874-2.56097-2.76514-.039-.00146-.07806-.00214-.11713-.00189h-125.69196v-.00098Z" fill="#e6e6e6"/><path id="i-45" d="M740.47894,712.57402H1.93799c-1.07098,0-1.93799-.46802-1.93799-1.04498s.86798-1.04498,1.93799-1.04498H740.47906c1.06995,0,1.93799,.46802,1.93799,1.04498s-.86707,1.04498-1.93811,1.04498Z" fill="#e6e6e6"/><path id="j-46" d="M165.23792,262.38996c.23102-.25699,.46198-.5,.70001-.74899,5.79999-6.10001,13.383-9.716,20.46198-9.716,1.31329,0,2.56995,.05966,3.77002,.17899,4.9707,.48734,8.94604,1.98532,11.92603,4.49399,4.39996,3.70398,6.60571,9.58432,6.617,17.64099,0,.44601,.026,1.27701,.06702,2.38,.26202,6.42801,1.216,22.08801,2.07202,24.40701,1.39001,3.776,2.59998,7.03799,.79999,9.505-1.04602,1.44101-3.09998,2.48801-6.315,3.16501-.59003,.12799-1.216,.241-1.883,.33301-3.44714,.457-6.92303,.6629-10.40002,.616-.45599,0-.91302,0-1.39001-.01001h-.005c-1.64697-.01001-3.40601-.05701-5.27301-.12799-4.9574-.10141-9.89532-.65268-14.75299-1.647h-.005c-.64099-.14401-1.27197-.30801-1.888-.48199l-.11298-.03101-.05103-.10001c-.87891-1.78867-1.38-3.7392-1.47198-5.73001-.94012,1.26822-1.63287,2.70224-2.04199,4.22699l-.07703,.293-1.55593-5.04154c-2.1687-.93274-2.77043,2.48642-4.16905,.58453-1.33783-1.98343-2.14014-4.27902-2.32898-6.664-.70105-6.47696,1.96198-31.56595,7.30695-37.52597Z" fill="#2f2e41"/><path id="k-47" d="M163.50897,470.70301h30.742l5.15503-25.48901,1.672,25.48901h30.55701c.01501-18.89099-7.77307-65.43201-6.84106-65.823s-.47498-1.63098-.47498-1.63098l-4.98401-17.11401-.46698-1.61102h-35.58405c-2.04779,1.92365-3.93665,4.00977-5.64801,6.23798-.58002,.73901-1.185,1.539-1.80603,2.40002-.43103,.60999-.87701,1.25201-1.323,1.92401-3.96509,5.90265-6.92889,12.41919-8.77197,19.28699v.005c-.31262,1.17468-.58966,2.37671-.83099,3.60602v.005c-.21503,1.09302-.40503,2.20001-.55402,3.33398-.11298,.82599-.21002,1.66199-.28198,2.508-.42773,4.6889-.27795,9.4126,.44598,14.065l-1.00494,32.80701Z" fill="#2f2e41"/><circle id="l" cx="189.82796" cy="279.35899" r="17.946" fill="#ffb6b6"/><path id="m-48" d="M178.03595,257.05497h17.56897c2.12518-.49466,4.31543-.64893,6.48901-.457,2.67114,.20364,5.2229,1.19046,7.336,2.83701,3.14398,2.52399,4.87799,6.54599,4.87799,11.32599-.00867,1.52841-.16675,3.05234-.47198,4.54999l-.03101,.159-.15399,.04099c-1.62067,.41531-3.245,.78467-4.87299,1.108-.39001,.077-.78497,.15399-1.17999,.22601-2.13397,.39499-4.16896,1.15045-4.16896,1.15045l-2.42302-.27844c-1.51392-1.39224-1.76802-4.83057-2.57698-6.72156-.15822,.55174-.35326,1.52411-.5432,2.57671-.48915,2.71084-2.85522,4.6963-5.60984,4.69791-.01583,0-.03149,0-.04696-.00002-6.74042-.00491-13.45563-.82318-20-2.43701-.43103-.10001-.85699-.20999-1.28198-.323l-.19501-.05099v-11.12c.00439-4.021,3.26294-7.27957,7.28394-7.28403Z" fill="#2f2e41"/><path id="n-49" d="M163.724,255.53299c.74493,7.32529,7.28717,12.65967,14.61249,11.9147,7.32526-.74493,12.65967-7.28717,11.91467-14.61246-.74493-7.32526-7.28717-12.65967-14.61243-11.9147-5.81317,.59119-10.5639,4.8988-11.71973,10.62646,2.03552,.28659,.84263,5.24606,2.50999,6.44839-2.05591-.254-.99895-3.84512-2.61198-2.54541-.03101,.02701-.06006,.05301-.09302,.08301Z" fill="#2f2e41"/><path id="o-50" d="M359.88097,570.83499H154.34399c-2.1011-.0022-3.8038-1.70496-3.806-3.80603v-50.98395c.00275-2.10089,1.70514-3.80328,3.806-3.80603h205.53699c2.10089,.00275,3.80328,1.70514,3.80603,3.80603v50.98499c-.00275,2.10089-1.70514,3.80328-3.80603,3.80603v-.00104Zm-205.53699-57.07397c-1.26096,.0011-2.2829,1.02301-2.284,2.284v50.98499c.0011,1.26099,1.02304,2.2829,2.284,2.284h205.53699c1.26099-.0011,2.2829-1.02301,2.284-2.284v-50.98499c-.0011-1.26099-1.02301-2.2829-2.284-2.284H154.34399Z" fill="#e6e6e6"/><path id="p-51" d="M217.90797,530.87899c-1.47156,0-2.66449,1.19293-2.66449,2.66449s1.19293,2.66449,2.66449,2.66449h125.60498c1.47076,.05634,2.70874-1.09027,2.76508-2.56097,.0564-1.47076-1.09021-2.70874-2.56097-2.76514-.039-.00146-.07806-.00214-.11713-.00189h-125.69196v-.00098Z" fill="#e6e6e6"/><path id="q-52" d="M217.90797,546.86497c-1.47156,0-2.66449,1.19293-2.66449,2.66449s1.19293,2.66449,2.66449,2.66449h125.60498c1.47076,.05634,2.70874-1.09021,2.76508-2.56097,.0564-1.47076-1.09021-2.70874-2.56097-2.76514-.039-.00146-.07806-.00214-.11713-.00189h-125.69196v-.00098Z" fill="#e6e6e6"/><path id="r-53" d="M359.88097,173.01899H154.34399c-2.1011-.0022-3.8038-1.70496-3.806-3.80603v-50.98395c.00275-2.10089,1.70514-3.80328,3.806-3.80603h205.53699c2.10089,.00275,3.80328,1.70514,3.80603,3.80603v50.98499c-.00275,2.10089-1.70514,3.80328-3.80603,3.80603v-.00104Zm-205.53699-57.07397c-1.26096,.0011-2.2829,1.02301-2.284,2.284v50.98499c.0011,1.26099,1.02304,2.2829,2.284,2.284h205.53699c1.26099-.0011,2.2829-1.02301,2.284-2.284v-50.98499c-.0011-1.26099-1.02301-2.2829-2.284-2.284H154.34399Z" fill="#e6e6e6"/><path id="s-54" d="M217.90797,133.06299c-1.47156,0-2.66449,1.19293-2.66449,2.66449s1.19293,2.66449,2.66449,2.66449h125.60498c1.47076,.05634,2.70874-1.09027,2.76508-2.56097,.0564-1.47076-1.09021-2.70874-2.56097-2.76514-.039-.00146-.07806-.00214-.11713-.00189h-125.69196v-.00098Z" fill="#e6e6e6"/><path id="t-55" d="M217.90797,149.04898c-1.47156,0-2.66449,1.19293-2.66449,2.66449s1.19293,2.66449,2.66449,2.66449h125.60498c1.47076,.05634,2.70874-1.09021,2.76508-2.56097,.0564-1.47076-1.09021-2.70874-2.56097-2.76514-.039-.00146-.07806-.00214-.11713-.00189h-125.69196v-.00098Z" fill="#e6e6e6"/><circle id="u" cx="180.98698" cy="143.72" r="15.986" fill="#e6e6e6"/><path id="v-56" d="M577.3309,462.372s-7.89891,24.24937-5.9019,28.6234,3.91295,72.36168,6.03996,74.66765-3.55396,2.30902-.14795,6.85004,12.45099,109.36499,12.45099,109.36499h17.66498s4.40002-5.07202,1.909-8.37201,.21899-4.573,0-6.77698,.60999-6.95502,.763-9.12299,3.13898-53.81897-4.03302-83.65503l13.07898-56.81201s1.98604,126.34633,9.27406,144.85634c0,0,2.27197,7.729,0,10s.00896,10.7047,.00896,10.7047l19.31097-1.13599,5.93201-95.61212s1.84302-11.22302,0-13.146-1.84302-11.01398-1.84302-11.01398c0,0,8.73311-73.50462,8.59108-76.79662s-9.27107-21.53636-9.27107-21.53636l-73.82703-1.08704Z" fill="#2f2e41"/><path id="w-57" d="M634.44803,327.95099l-28.20001-1.939-8.43799,13.29999-20.32098,8.26199v65.539c2.11432,6.34552,3.20721,12.98657,3.23798,19.67499-.078,13.05701-3.43298,28.43799-2.27197,31.80698,11.35999,32.94299,73.83698,0,73.83698,0l-1.13599-35.215,1.54199-79.58401-12.76703-10.18301-5.48297-11.66193Z" fill="#e6e6e6"/><path id="x-58" d="M582.09097,345.82997l-.33197,.056c-6.27917,1.06305-11.62976,5.1553-14.29999,10.93701-3.43402,7.427-8.22595,115.07101-8.22595,115.07101,0,0,12.80902-.97198,19.18402,2.07501,0,0,2.87799-15.853,1.15399-18.61002s1.505-30.328,1.505-30.328c7.00891-18.32602,4.24286-48.487,1.01489-79.20102Z" fill="#e6e6e6"/><circle id="y" cx="621.04209" cy="299.85099" r="21.995" fill="#ffb6b6"/><path id="a`-59" d="M636.34793,318.67798c3.05902-2.39401,3.35602-6.957,5.966-9.83398,4.36401-4.80899,6.41498-9.98401,4.12903-15.68201-2.02197-5.04001-1.59198-11.23599-5.948-14.48001,2.13898-.77399-5.26202,.00101-2.979-3.03s-2.039-1.83401-1.75299-3.07501-3.60425-3.5141-6.13196-1.03867c-.38007,.37222-.71228,.79031-.98901,1.24466-2.573-3.85501-5.29999-6.508-9.23999-4.06201-3.86603,2.39999-3.81598,5.37299-7.97302,4.659-1.95398-.336-2.13898,3.35699-3.474,4.823-1.25415,1.58356-3.22504,2.4241-5.23602,2.233-1.94897-.36801-6.94,6.026-6.94,6.026l-1.85101-2.26999c-2.94098,1.91699-1.97498,6.918,.98499,8.79999s6.80798,1.483,10.21698,.647c4.10449-1.00558,8.34216-1.35559,12.55603-1.03696,6.43701,.909,10.91998,8.60001,8.53601,14.65201,2.47302-2.42801,7.04797-.41299,8.32898,2.80701s.34198,6.849-.60797,10.18201" fill="#2f2e41"/><path d="M672.01114,487.69528c-.02379,6.66785-3.48282,12.06089-7.726,12.04575-4.24318-.01514-7.66364-5.43273-7.63985-12.10058,.01041-2.91874,.67919-5.59313,1.7837-7.67666l.45526-28.2523,13.2535,.49599-1.8555,27.7986c1.08962,2.09136,1.7393,4.77045,1.72888,7.68919Z" fill="#ffb6b6"/><path id="aa-60" d="M646.8381,347.776l.33502,.039c6.32281,.746,11.87091,4.56226,14.82898,10.20001,3.79999,7.24399,13.71289,99.46399,13.39594,101.147s.62299,13.36902,.62299,13.36902c0,0-12.84198-.32397-19.05499,3.03998l-5.12592-48.74301-5.00201-79.052Z" fill="#e6e6e6"/><g><path d="M77.6101,181.99539c-1.64951,0-2.99089,1.34137-2.99089,2.99089v23.92709c0,1.64951,1.34137,2.99089,2.99089,2.99089s2.99089-1.34137,2.99089-2.99089v-23.92709c0-1.64951-1.34137-2.99089-2.99089-2.99089Z" fill="#3f3d56"/><path d="M77.6101,253.77666c-1.64951,0-2.99089,1.34137-2.99089,2.99089v46.35873c0,1.64951,1.34137,2.99089,2.99089,2.99089s2.99089-1.34137,2.99089-2.99089v-46.35873c0-1.64951-1.34137-2.99089-2.99089-2.99089Z" fill="#3f3d56"/><path d="M77.6101,319.57615c-1.64951,0-2.99089,1.34137-2.99089,2.99089v46.35873c0,1.64951,1.34137,2.99089,2.99089,2.99089s2.99089-1.34137,2.99089-2.99089v-46.35873c0-1.64951-1.34137-2.99089-2.99089-2.99089Z" fill="#3f3d56"/></g><path d="M257.73588,294.0361c-3.50653-.94672-7.55511,2.75275-9.04285,8.263-.65118,2.41199-.70361,4.77112-.26276,6.74097l.03406,.00922-2.21234,5.40167-.005,.005-8.20001,20v.005l-.08698,.20996-30.28003-18.09998-4.22699-2.52899-.815-.487c-3.37036-2.59644-8.18005-2.11731-10.97198,1.09296h-.005c-2.90814,3.37158-2.53247,8.46234,.83917,11.37048,.14337,.12366,.29108,.24225,.44281,.35553v-.01099c9.04633,6.57379,18.47601,12.60309,28.23901,18.05603,2.66803,1.46698,5.284,2.81598,7.74597,3.95996,3.16638,1.57977,6.51337,2.76819,9.96698,3.539l.005,.005c.40002,.07202,.78003,.12299,1.14398,.159,3.34998,.323,6.09399-1.68799,8.33099-4.99097,3.11902-4.60004,5.258-11.70001,6.70001-18.508,.28802-1.34399,.54401-2.67303,.77502-3.97003,.98492-5.48694,1.51892-10.38135,1.77148-13.09143l.60425,.16315c1.37238-1.48029,2.51434-3.54523,3.16559-5.95721,1.48767-5.51025-.14893-10.74463-3.6554-11.69135Z" fill="#ffb6b6"/><path id="ab-61" d="M198.24695,300.81397l-16.93597-.87201-7.86603,12.42999s-14.79999,2.47501-13.77502,19.91501,12.75908,48.70843,12.75908,48.70843l-8.41301,29.60962-.177,2.21503-.54803,6.86102c14.91901,3.724,10.45651,1.22447,15.79946-9.88252,6.12402-15.284,30.96653-18.03145,43.55454-11.98345l-1.88202-16.88501-2.32397-3.117,1.29999-4.065-1.95203-3.91-1.01294-12.4151s11.133-16.72699-1.64697-29.32501l-5.13-8.72-5.73999-7-6.01007-11.564Z" fill="#6c63ff"/><path d="M230.00456,361.36404c-1.37832-3.3604-6.77642-4.32868-12.05706-2.16278-2.31146,.9481-4.21717,2.33969-5.51399,3.88659l.01337,.03265-5.63461,1.52438-.00702-.00093-20.86773,5.63719-.00398,.00304-.21961,.05847-4.019-35.04764-.55921-4.89393-.10831-.94322c.01478-4.25448-3.28779-7.78375-7.53388-8.05107l-.00304-.00398c-4.44482-.26163-8.26019,3.12953-8.52178,7.57439-.01112,.189-.01558,.37837-.01338,.56772l.00873-.00667c.27428,11.17924,1.21396,22.3322,2.81394,33.39976,.45567,3.01045,.97342,5.90786,1.56046,8.55841,.66884,3.47481,1.75825,6.85532,3.24414,10.06682l-.00093,.00702c.18582,.36149,.3762,.6943,.5687,1.00526,1.77863,2.85712,5.04302,3.81498,9.02561,3.58519,5.54869-.31719,12.48769-2.9316,18.77135-5.92222,1.24252-.58773,2.45369-1.19183,3.62425-1.79629,4.95665-2.55112,9.1687-5.10043,11.47476-6.54626l.23751,.57907c2.00954,.19077,4.3435-.15666,6.65499-1.10472,5.2806-2.16595,8.444-6.64591,7.06571-10.00626Z" fill="#ffb6b6"/><circle cx="282.09042" cy="266.79854" r="10" fill="#e6e6e6"/><path d="M326.23043,265.16854c-.40002-.69-1.12-1.10999-1.92004-1.10999-.79999,0-1.51996,.41998-1.91998,1.10999l-4.29999,9.63-15.97998-30.12c-.59003-1.01001-1.63-1.61005-2.80005-1.61005-1.16998,0-2.20996,.60004-2.79999,1.61005l-27.63741,48.9559c-1.18376,2.95111,.98927,6.1641,4.16894,6.1641h64.23881c4.06079,0,6.93851-3.9639,5.68084-7.82501l-16.73114-26.80499Z" fill="#6c63ff"/><path d="M306.69039,218.79854c-31.42999,0-57,25.57001-57,57,0,12.73999,4.20001,24.51996,11.30005,34.01996,10.39996,13.94,27.00995,22.98004,45.69995,22.98004,19.21002,0,36.23004-9.54999,46.56-24.15002,6.57001-9.28998,10.44-20.63,10.44-32.84998,0-31.42999-25.56995-57-57-57Zm45.45001,87.92999c-9.90997,14.52002-26.58997,24.07001-45.45001,24.07001-18.34998,0-34.62-9.03003-44.60999-22.87-6.53998-9.04004-10.39001-20.15002-10.39001-32.13,0-30.33002,24.67004-55,55-55,30.32001,0,55,24.66998,55,55,0,11.45996-3.51996,22.10999-9.54999,30.92999Z" fill="#e6e6e6"/></svg>